<?xml version="1.0" encoding="utf-8"?>
<!-- Generator: Adobe Illustrator 15.0.0, SVG Export Plug-In . SVG Version: 6.00 Build 0)  -->
<!DOCTYPE svg PUBLIC "-//W3C//DTD SVG 1.1//EN" "http://www.w3.org/Graphics/SVG/1.1/DTD/svg11.dtd">
<svg version="1.1" id="Layer_1" xmlns="http://www.w3.org/2000/svg" xmlns:xlink="http://www.w3.org/1999/xlink" x="0px" y="0px"
	 width="783.658px" height="136.184px" viewBox="0 0 783.658 136.184" enable-background="new 0 0 783.658 136.184"
	 xml:space="preserve">
<g>
	<g>
		<path fill="#3A1888" d="M38.074,109.319c6.517,6.516,23.859,24.193,23.851,24.211c-0.062,0.116,17.231-17.247,24.118-24.13
			L62.018,85.375L38.074,109.319z"/>
		<path fill="#03A1C4" d="M62.018,85.375L86.042,109.4c0.036-0.043,0.079-0.087,0.118-0.122l24.004-24.004L86.14,61.252
			L62.018,85.375z"/>
		<path fill="#05D0DF" d="M110.165,85.273l0.062-0.064c13.276-13.273,13.286-34.789,0.04-48.083L86.14,61.252L110.165,85.273z"/>
		<path fill="#761FE8" d="M37.892,61.252L13.955,85.19c0.006,0.007,0.009,0.015,0.018,0.019l24.062,24.069
			c0.012,0.013,0.026,0.024,0.039,0.041l23.944-23.944L37.892,61.252z"/>
		<path fill="#FFAA01" d="M62.018,37.126L86.14,61.252l24.126-24.126c-0.02-0.013-0.027-0.024-0.04-0.041L86.161,13.023
			c-0.004-0.007-0.013-0.012-0.021-0.02L62.018,37.126z"/>
		<path fill="#F1175D" d="M13.851,37.209C0.692,50.501,0.726,71.94,13.955,85.19l23.937-23.938L13.851,37.209z"/>
		<path fill="#FB3A1B" d="M62.018,37.126L37.976,13.085l-24.003,24c-0.041,0.041-0.078,0.085-0.121,0.124l24.041,24.042
			L62.018,37.126z"/>
		<path fill="#FBC935" d="M86.14,13.003C72.847-0.266,51.319-0.258,38.035,13.023l-0.059,0.062l24.042,24.041L86.14,13.003z"/>
	</g>
	<g>
		<path fill="#FFFFFF" d="M185.648,91.292V66.706c0-6.053-3.167-11.547-9.409-11.547c-6.147,0-9.775,5.494-9.775,11.547v24.586
			h-11.359V45.289h10.521l0.838,5.589c2.421-4.659,7.729-6.333,12.101-6.333c5.498,0,10.99,2.238,13.599,8.566
			c4.096-6.519,9.408-8.381,15.364-8.381c13.039,0,19.463,8.006,19.463,21.791v24.771H215.63V66.521
			c0-6.051-2.513-11.176-8.655-11.176c-6.15,0-9.969,5.308-9.969,11.361v24.586H185.648z"/>
		<path fill="#FFFFFF" d="M274.949,45.385h10.896v45.908h-10.71l-0.561-6.704c-2.605,5.397-9.773,8.002-14.896,8.097
			c-13.593,0.098-23.653-8.288-23.653-24.398c0-15.827,10.526-24.113,23.936-24.021c6.144,0,12.009,2.885,14.614,7.45
			L274.949,45.385z M247.386,68.288c0,8.751,6.051,13.969,13.596,13.969c17.877,0,17.877-27.842,0-27.842
			C253.438,54.415,247.386,59.539,247.386,68.288z"/>
		<path fill="#FFFFFF" d="M295.436,110.479V45.385h10.62l0.74,6.332c3.542-5.124,9.689-7.357,14.903-7.357
			c14.149,0,23.561,10.524,23.561,24.025c0,13.41-8.478,24.027-23.19,24.027c-4.84,0-12.012-1.494-15.274-6.522v24.589H295.436z
			 M333.899,68.384c0-7.17-4.845-13.04-13.039-13.04c-8.197,0-13.039,5.87-13.039,13.04c0,7.167,5.31,13.04,13.039,13.04
			C328.593,81.424,333.899,75.551,333.899,68.384z"/>
		<path fill="#FFFFFF" d="M365.56,31.416v13.873h15.644v3.817H365.56v28.03c0,6.237,1.306,10.617,8.474,10.617
			c2.235,0,4.749-0.747,7.077-1.863l1.583,3.721c-2.888,1.4-5.776,2.332-8.66,2.332c-9.776,0-12.944-5.775-12.944-14.807v-28.03
			h-9.779v-3.817h9.779V31.881L365.56,31.416z"/>
		<path fill="#FFFFFF" d="M397.78,30.296c0,4.843-7.355,4.843-7.355,0C390.425,25.455,397.78,25.455,397.78,30.296z M391.731,45.102
			v46.19h4.558v-46.19H391.731z"/>
		<path fill="#FFFFFF" d="M413.888,26.11v65.183h-4.561V26.11H413.888z"/>
		<path fill="#FFFFFF" d="M486.245,45.289l0.183,8.198c2.888-6.244,9.409-8.663,15.275-8.663c3.447-0.093,6.792,0.837,9.87,2.702
			l-2.053,3.723c-2.415-1.489-5.122-2.143-7.817-2.143c-8.572,0.097-15.182,6.985-15.182,15.366v26.82h-4.564V45.289H486.245z"/>
	</g>
	<g>
		<path fill="#FFFFFF" d="M429.407,76.088c0.003,0.004,0.006,0.007,0.006,0.012l37.244-9.856c-0.003-0.012-0.005-0.027-0.005-0.042
			L429.407,76.088z"/>
		<path fill="#FFFFFF" d="M447.374,88.522c-8.106,0-15.051-5.077-17.957-12.289h-0.026l0.022-0.004c0-0.005-0.003-0.01-0.006-0.013
			l37.245-9.885c0,0.016,0.002,0.03,0.005,0.042l3.963-1.049c-1.603-11.652-11.396-20.62-23.246-20.62
			c-12.963,0-23.473,10.737-23.473,23.981c0,13.244,10.51,23.982,23.473,23.982c9.7,0,18.021-6.008,21.603-14.578l-3.736-1.624
			C462.28,83.554,455.395,88.522,447.374,88.522z M427.959,68.685c0-10.955,8.692-19.837,19.415-19.837
			c8.384,0,15.526,5.428,18.247,13.037l-37.421,9.93C428.042,70.794,427.959,69.751,427.959,68.685z"/>
	</g>
</g>
<g>
	<path fill="#FFFFFF" d="M587.464,51.987l-17.553,26.856h-1.178l-17.685-26.856v40.745h-3.54V46.878c1.702,0,2.489,0,4.191,0
		l17.556,26.723l17.357-26.723h4.326v45.854h-3.476V51.987z"/>
	<path fill="#FFFFFF" d="M645.297,69.87c-0.066,12.052-7.729,23.644-23.122,23.644s-23.122-11.656-23.122-23.777
		c0-12.313,7.665-23.579,23.122-23.579C637.633,46.158,645.361,57.489,645.297,69.87z M602.522,69.803
		c0.066,10.349,6.614,20.438,19.652,20.438c13.102,0,19.716-10.089,19.716-20.438c0-10.609-6.551-20.37-19.716-20.37
		C609.009,49.433,602.458,58.997,602.522,69.803z"/>
	<path fill="#FFFFFF" d="M687.604,59.389c0,4.717-2.884,8.384-7.468,9.826c5.763,1.573,9.04,6.223,9.04,11.529
		c0,9.432-8.778,11.988-16.641,11.988c-6.679,0-12.116,0-18.8,0V46.878c6.616,0,12.121,0,18.8,0
		C680.264,46.878,687.604,50.677,687.604,59.389z M657.275,67.642h15.718c5.503,0,11.269-1.703,11.269-8.253
		c0-6.68-6.025-9.498-11.727-9.498h-15.26V67.642z M657.275,89.325h15.26c5.767,0,13.165-1.375,13.165-8.648
		c-0.063-7.139-6.548-9.693-12.707-9.693c-5.501,0-10.218,0-15.718,0V89.325z"/>
	<path fill="#FFFFFF" d="M697.684,92.732V46.878h3.469v45.854H697.684z"/>
	<path fill="#FFFFFF" d="M714.775,46.878v42.511h25.809v3.343h-29.346V46.878H714.775z"/>
	<path fill="#FFFFFF" d="M750.729,68.036h26.856v3.209h-26.856v18.08h28.954v3.407H747.26V46.878h31.635v3.341h-28.165V68.036z"/>
</g>
</svg>
