<?xml version="1.0" encoding="utf-8"?>
<!-- Generator: Adobe Illustrator 15.0.0, SVG Export Plug-In . SVG Version: 6.00 Build 0)  -->
<!DOCTYPE svg PUBLIC "-//W3C//DTD SVG 1.1//EN" "http://www.w3.org/Graphics/SVG/1.1/DTD/svg11.dtd">
<svg version="1.1" id="Layer_1" xmlns="http://www.w3.org/2000/svg" xmlns:xlink="http://www.w3.org/1999/xlink" x="0px" y="0px"
	 width="2438.878px" height="707.965px" viewBox="0 0 2438.878 707.965" enable-background="new 0 0 2438.878 707.965"
	 xml:space="preserve">
<path opacity="0.12" fill="#FFFFFF" d="M697.518-88.768L539.026,69.724c-17.2,17.199-17.198,45.065-0.011,62.252L833.37,426.331
	c17.187,17.188,45.078,17.212,62.277,0.015l158.491-158.492c17.186-17.185,17.185-45.101-0.003-62.287L759.781-88.79
	C742.594-105.978,714.704-105.953,697.518-88.768 M953.354,325.572c-11.263,11.264-29.481,11.251-40.733,0
	c-11.274-11.274-11.286-29.493-0.023-40.757c11.251-11.249,29.506-11.273,40.779,0C964.628,296.067,964.604,314.323,953.354,325.572
	 M686.764-16.868l-75.837,75.837c-8.781,8.781-22.364-4.802-13.584-13.583l75.836-75.836
	C681.919-39.193,695.504-25.608,686.764-16.868"/>
<path opacity="0.12" fill="#FFFFFF" d="M589.523,289.212L431.032,447.704c-17.2,17.199-17.198,45.065-0.011,62.252l294.354,294.355
	c17.187,17.188,45.078,17.212,62.277,0.015l158.491-158.492c17.186-17.185,17.185-45.101-0.003-62.287L651.786,289.19
	C634.6,272.003,606.709,272.027,589.523,289.212 M845.359,703.553c-11.263,11.264-29.481,11.251-40.733,0
	c-11.274-11.274-11.286-29.493-0.023-40.757c11.251-11.249,29.506-11.273,40.779,0C856.634,674.048,856.61,692.304,845.359,703.553
	 M578.769,361.112l-75.837,75.837c-8.781,8.781-22.364-4.802-13.584-13.583l75.836-75.836
	C573.925,338.788,587.51,352.372,578.769,361.112"/>
<path opacity="0.12" fill="#FFFFFF" d="M207.042-88.768L48.551,69.724c-17.2,17.199-17.198,45.065-0.011,62.252l294.354,294.355
	c17.187,17.188,45.078,17.212,62.277,0.015l158.491-158.492c17.186-17.185,17.185-45.101-0.003-62.287L269.305-88.79
	C252.119-105.978,224.228-105.953,207.042-88.768 M462.878,325.572c-11.263,11.264-29.481,11.251-40.733,0
	c-11.274-11.274-11.286-29.493-0.023-40.757c11.251-11.249,29.506-11.273,40.779,0C474.153,296.067,474.129,314.323,462.878,325.572
	 M196.288-16.868l-75.837,75.837c-8.781,8.781-22.364-4.802-13.584-13.583l75.836-75.836
	C191.444-39.193,205.029-25.608,196.288-16.868"/>
</svg>
